<?xml version="1.0" encoding="UTF-8" standalone="no"?>
<!-- Created with Inkscape (http://www.inkscape.org/) -->
<svg
   xmlns:dc="http://purl.org/dc/elements/1.1/"
   xmlns:cc="http://creativecommons.org/ns#"
   xmlns:rdf="http://www.w3.org/1999/02/22-rdf-syntax-ns#"
   xmlns:svg="http://www.w3.org/2000/svg"
   xmlns="http://www.w3.org/2000/svg"
   xmlns:sodipodi="http://sodipodi.sourceforge.net/DTD/sodipodi-0.dtd"
   xmlns:inkscape="http://www.inkscape.org/namespaces/inkscape"
   id="svg2"
   sodipodi:version="0.32"
   inkscape:version="0.46"
   width="2000"
   height="1450"
   version="1.0"
   sodipodi:docname="Mitochondrial_DNA_it.svg"
   inkscape:output_extension="org.inkscape.output.svg.inkscape">
  <metadata
     id="metadata7">
    <rdf:RDF>
      <cc:Work
         rdf:about="">
        <dc:format>image/svg+xml</dc:format>
        <dc:type
           rdf:resource="http://purl.org/dc/dcmitype/StillImage" />
      </cc:Work>
    </rdf:RDF>
  </metadata>
  <defs
     id="defs5">
    <inkscape:perspective
       sodipodi:type="inkscape:persp3d"
       inkscape:vp_x="0 : 526.18109 : 1"
       inkscape:vp_y="0 : 1000 : 0"
       inkscape:vp_z="744.09448 : 526.18109 : 1"
       inkscape:persp3d-origin="372.04724 : 350.78739 : 1"
       id="perspective9" />
  </defs>
  <sodipodi:namedview
     inkscape:window-height="706"
     inkscape:window-width="724"
     inkscape:pageshadow="2"
     inkscape:pageopacity="0.0"
     guidetolerance="10.0"
     gridtolerance="10.0"
     objecttolerance="10.0"
     borderopacity="1.0"
     bordercolor="#666666"
     pagecolor="#ffffff"
     id="base"
     showgrid="false"
     inkscape:zoom="0.22627418"
     inkscape:cx="882.80411"
     inkscape:cy="570.39476"
     inkscape:window-x="92"
     inkscape:window-y="48"
     inkscape:current-layer="svg2" />
  <g
     id="g2507"
     transform="translate(0,2)">
    <g
       transform="matrix(0.5384714,0,0,0.5384714,375.4815,59.790866)"
       id="g3349">
      <path
         style="fill:none;fill-rule:evenodd;stroke:#000000;stroke-width:2.5;stroke-linecap:butt;stroke-linejoin:miter;stroke-miterlimit:4;stroke-dasharray:none;stroke-opacity:1"
         d="M 2197.2197,1583.461 L 2313.2897,1823.575 L 2126.3373,1740.288"
         id="path3248" />
      <path
         style="fill:none;fill-rule:evenodd;stroke:#000000;stroke-width:2.5;stroke-linecap:butt;stroke-linejoin:miter;stroke-miterlimit:4;stroke-dasharray:none;stroke-opacity:1"
         d="M 2313.2472,1823.918 L 2002.4941,1918.523"
         id="path3250" />
      <path
         style="fill:none;fill-rule:evenodd;stroke:#000000;stroke-width:2.5;stroke-linecap:butt;stroke-linejoin:miter;stroke-miterlimit:4;stroke-dasharray:none;stroke-opacity:1"
         d="M 804.5913,275.165 L 720.0113,133.572"
         id="path3240" />
      <path
         style="fill:none;fill-rule:evenodd;stroke:#000000;stroke-width:2.5;stroke-linecap:butt;stroke-linejoin:miter;stroke-miterlimit:4;stroke-dasharray:none;stroke-opacity:1"
         d="M 1188.0204,191.212 L 1171.731,0.75"
         id="path3242" />
      <path
         style="fill:none;fill-rule:evenodd;stroke:#000000;stroke-width:2.5;stroke-linecap:butt;stroke-linejoin:miter;stroke-miterlimit:4;stroke-dasharray:none;stroke-opacity:1"
         d="M 1657.9091,288.949 L 1768.1763,161.766"
         id="path3244" />
      <path
         style="fill:none;fill-rule:evenodd;stroke:#000000;stroke-width:2.5;stroke-linecap:butt;stroke-linejoin:miter;stroke-miterlimit:4;stroke-dasharray:none;stroke-opacity:1"
         d="M 1936.0832,480.037 L 2218.0164,424.903 L 2152.0322,774.515"
         id="path3246" />
      <path
         style="fill:none;fill-rule:evenodd;stroke:#000000;stroke-width:2.5;stroke-linecap:butt;stroke-linejoin:miter;stroke-miterlimit:4;stroke-dasharray:none;stroke-opacity:1"
         d="M 1827.6955,2078.285 L 2032.567,2162.865"
         id="path3252" />
      <path
         style="fill:none;fill-rule:evenodd;stroke:#000000;stroke-width:2.5;stroke-linecap:butt;stroke-linejoin:miter;stroke-miterlimit:4;stroke-dasharray:none;stroke-opacity:1"
         d="M 1553.9071,2219.878 L 1641.6196,2400.315 L 1406.0488,2258.722"
         id="path3254" />
      <path
         style="fill:none;fill-rule:evenodd;stroke:#000000;stroke-width:2.5;stroke-linecap:butt;stroke-linejoin:miter;stroke-miterlimit:4;stroke-dasharray:none;stroke-opacity:1"
         d="M 1209.2957,2276.337 L 807.0378,2457.087 L 711.3465,2146.09"
         id="path3256" />
      <path
         style="fill:none;fill-rule:evenodd;stroke:#000000;stroke-width:2.5;stroke-linecap:butt;stroke-linejoin:miter;stroke-miterlimit:4;stroke-dasharray:none;stroke-opacity:1"
         d="M 231.1179,1577.259 L 0.75,1395.623 L 178.8421,1126.269"
         id="path3258" />
      <path
         style="fill:none;fill-rule:evenodd;stroke:#000000;stroke-width:2.5;stroke-linecap:butt;stroke-linejoin:miter;stroke-miterlimit:4;stroke-dasharray:none;stroke-opacity:1"
         d="M 364.9085,630.092 L 221.3716,510.478"
         id="path3260" />
      <g
         id="g3833"
         style="stroke-width:1.00100005;stroke-miterlimit:4;stroke-dasharray:none"
         transform="translate(-3573.5181,16236.97)">
        <path
           id="path2435"
           d="M 4269.9581,-15200.325 L 4269.9581,-15234.7 L 4304.3331,-15234.7 L 4338.7081,-15234.7 L 4338.7081,-15200.325 L 4338.7081,-15165.95 L 4304.3331,-15165.95 L 4269.9581,-15165.95 L 4269.9581,-15200.325 z"
           style="fill:#ffd700;fill-opacity:1;stroke:none;stroke-width:1.00100005;stroke-miterlimit:4;stroke-dasharray:none;stroke-opacity:1" />
        <path
           id="path3227"
           d="M 5462.8952,-14257.165 C 5449.4505,-14272.273 5438.33,-14284.812 5438.183,-14285.03 C 5437.9791,-14285.331 5438.3389,-14285.805 5439.6997,-14287.025 C 5447.3847,-14293.918 5458.7663,-14304.59 5466.3775,-14312.04 L 5471.11,-14316.673 L 5497.1789,-14290.401 C 5511.5168,-14275.952 5523.2824,-14264.038 5523.3245,-14263.925 C 5523.4963,-14263.467 5503.6768,-14244.595 5488.1687,-14230.451 L 5487.3401,-14229.695 L 5462.8952,-14257.165 z"
           style="fill:#ffd700;fill-opacity:1;stroke:none;stroke-width:1.00100005;stroke-miterlimit:4;stroke-dasharray:none;stroke-opacity:1" />
        <path
           id="path3229"
           d="M 5600.9877,-14410.043 C 5584.8085,-14422.042 5571.584,-14432.017 5571.6,-14432.209 C 5571.6159,-14432.401 5572.6786,-14433.982 5573.9615,-14435.722 C 5579.9928,-14443.903 5590.5807,-14458.966 5595.8231,-14466.825 C 5597.0685,-14468.692 5598.2189,-14470.174 5598.3795,-14470.119 C 5598.804,-14469.972 5657.658,-14429.639 5658.2385,-14429.096 C 5658.7017,-14428.663 5658.4834,-14428.278 5654.08,-14421.747 C 5646.8362,-14411.005 5633.0085,-14391.345 5631.0281,-14388.973 L 5630.4045,-14388.226 L 5600.9877,-14410.043 z"
           style="fill:#ffd700;fill-opacity:1;stroke:none;stroke-width:1.00100005;stroke-miterlimit:4;stroke-dasharray:none;stroke-opacity:1" />
        <path
           id="path3231"
           d="M 5792.5277,-14946.72 C 5774.4728,-14947.754 5759.6643,-14948.639 5759.6199,-14948.688 C 5759.5754,-14948.736 5759.6468,-14950.507 5759.7784,-14952.624 C 5760.2365,-14959.989 5760.8414,-14974.239 5761.0308,-14982.129 L 5761.2215,-14990.07 L 5765.1143,-14990.064 C 5767.2554,-14990.061 5782.4312,-14989.877 5798.8383,-14989.656 C 5815.2454,-14989.434 5829.2598,-14989.251 5829.9814,-14989.247 L 5831.2934,-14989.241 L 5831.2917,-14984.477 C 5831.2898,-14979.273 5830.6293,-14959.268 5830.1905,-14951.124 C 5830.0391,-14948.313 5829.9145,-14945.734 5829.9137,-14945.392 C 5829.9124,-14944.795 5829.8226,-14944.772 5827.6336,-14944.806 C 5826.3802,-14944.825 5810.5826,-14945.687 5792.5277,-14946.72 L 5792.5277,-14946.72 z"
           style="fill:#ffd700;fill-opacity:1;stroke:none;stroke-width:1.00100005;stroke-miterlimit:4;stroke-dasharray:none;stroke-opacity:1" />
        <path
           id="path3233"
           d="M 5790.5519,-14990.776 C 5777.1831,-14990.963 5765.1264,-14991.13 5763.7592,-14991.146 L 5761.2732,-14991.176 L 5761.2522,-15014.377 L 5761.2311,-15037.579 L 5762.357,-15037.581 C 5762.9763,-15037.583 5777.9013,-15037.955 5795.5237,-15038.407 C 5834.5725,-15039.41 5830.6369,-15039.387 5830.8394,-15038.614 C 5831.1268,-15037.518 5831.6497,-14999.189 5831.4387,-14994.688 L 5831.2352,-14990.346 L 5823.0469,-14990.39 C 5818.5434,-14990.415 5803.9206,-14990.588 5790.5519,-14990.776 L 5790.5519,-14990.776 z"
           style="fill:#ffd700;fill-opacity:1;stroke:none;stroke-width:1.00100005;stroke-miterlimit:4;stroke-dasharray:none;stroke-opacity:1" />
        <path
           id="path3235"
           d="M 5761.033,-15039.305 C 5760.9414,-15039.647 5760.8632,-15041.232 5760.8591,-15042.827 C 5760.8459,-15048.036 5759.9081,-15066.476 5759.0353,-15078.684 C 5758.793,-15082.075 5758.638,-15084.887 5758.691,-15084.934 C 5758.7886,-15085.021 5826.2426,-15089.25 5827.3217,-15089.238 C 5827.8296,-15089.231 5827.9303,-15089.019 5828.0792,-15087.642 C 5828.9116,-15079.944 5831.0711,-15040.855 5830.6852,-15040.469 C 5830.5411,-15040.325 5769.3821,-15038.694 5763.8604,-15038.687 C 5761.3332,-15038.684 5761.1912,-15038.715 5761.033,-15039.305 L 5761.033,-15039.305 z"
           style="fill:#ffd700;fill-opacity:1;stroke:none;stroke-width:1.00100005;stroke-miterlimit:4;stroke-dasharray:none;stroke-opacity:1" />
        <path
           id="path3237"
           d="M 5377.8488,-15784.106 C 5374.7336,-15786.508 5367.8781,-15791.618 5362.6145,-15795.462 C 5357.3508,-15799.305 5352.8196,-15802.668 5352.5452,-15802.934 C 5352.1435,-15803.324 5355.6762,-15808.403 5370.6605,-15828.98 C 5380.8984,-15843.038 5389.3258,-15854.599 5389.388,-15854.67 C 5389.5371,-15854.841 5403.113,-15845.011 5414.2515,-15836.667 L 5423.115,-15830.027 L 5420.8026,-15827.05 C 5419.5308,-15825.412 5410.7917,-15814.154 5401.3825,-15802.031 C 5391.9732,-15789.909 5384.1033,-15779.934 5383.8938,-15779.865 C 5383.6843,-15779.795 5380.9641,-15781.704 5377.8488,-15784.106 L 5377.8488,-15784.106 z"
           style="fill:#ffd700;fill-opacity:1;stroke:none;stroke-width:1.00100005;stroke-miterlimit:4;stroke-dasharray:none;stroke-opacity:1" />
        <path
           id="path3239"
           d="M 4949.8814,-15969.789 C 4944.5103,-15970.718 4935.0181,-15972.208 4928.7876,-15973.101 C 4922.5572,-15973.995 4917.3985,-15974.786 4917.3239,-15974.86 C 4917.1701,-15975.012 4925.3539,-16035.612 4925.5555,-16035.814 C 4925.788,-16036.046 4944.4358,-16033.348 4958.5722,-16031.037 C 4970.0704,-16029.157 4972.3149,-16028.687 4972.1821,-16028.187 C 4972.0946,-16027.857 4969.6035,-16014.184 4966.6464,-15997.803 C 4961.5403,-15969.516 4961.2289,-15968.02 4960.4584,-15968.059 C 4960.0121,-15968.082 4955.2525,-15968.86 4949.8814,-15969.789 L 4949.8814,-15969.789 z"
           style="fill:#ffd700;fill-opacity:1;stroke:none;stroke-width:1.00100005;stroke-miterlimit:4;stroke-dasharray:none;stroke-opacity:1" />
        <path
           id="path3241"
           d="M 4901.6392,-15976.625 C 4894.8716,-15977.437 4885.7726,-15978.416 4881.4193,-15978.801 C 4877.0659,-15979.186 4873.3644,-15979.598 4873.1937,-15979.716 C 4872.9428,-15979.89 4876.9605,-16040.578 4877.2501,-16040.989 C 4877.5554,-16041.422 4923.4634,-16036.505 4924.0415,-16035.977 C 4924.3052,-16035.736 4917.0806,-15980.26 4916.2467,-15976.123 C 4915.9811,-15974.805 4917.167,-15974.764 4901.6392,-15976.625 L 4901.6392,-15976.625 z"
           style="fill:#ffd700;fill-opacity:1;stroke:none;stroke-width:1.00100005;stroke-miterlimit:4;stroke-dasharray:none;stroke-opacity:1" />
        <path
           id="path3243"
           d="M 4577.9465,-15990.968 C 4574.4435,-16007.027 4571.4949,-16020.52 4571.394,-16020.952 C 4571.1779,-16021.878 4570.4971,-16021.715 4591.7564,-16025.816 C 4609.5678,-16029.251 4612.7619,-16029.794 4613.0716,-16029.438 C 4613.3561,-16029.111 4623.7259,-15969.57 4623.5265,-15969.408 C 4623.4553,-15969.35 4621.9908,-15969.086 4620.272,-15968.821 C 4614.3772,-15967.912 4587.186,-15962.627 4584.9109,-15961.948 C 4584.4183,-15961.801 4583.2154,-15966.813 4577.9465,-15990.968 L 4577.9465,-15990.968 z"
           style="fill:#ffd700;fill-opacity:1;stroke:none;stroke-width:1.00100005;stroke-miterlimit:4;stroke-dasharray:none;stroke-opacity:1" />
        <path
           id="path3245"
           d="M 4189.4612,-15815.858 C 4179.3368,-15829.272 4171.0533,-15840.4 4171.0533,-15840.587 C 4171.0533,-15841.027 4184.9591,-15851.134 4197.3847,-15859.725 C 4205.1252,-15865.076 4207.2372,-15866.368 4207.6015,-15865.975 C 4208.8168,-15864.661 4241.7991,-15816 4241.6884,-15815.683 C 4241.6183,-15815.483 4237.4302,-15812.45 4232.3814,-15808.942 C 4227.3326,-15805.434 4219.9497,-15800.19 4215.9751,-15797.287 C 4212.0005,-15794.384 4208.5507,-15791.888 4208.3089,-15791.739 C 4208.036,-15791.571 4200.8862,-15800.721 4189.4612,-15815.858 L 4189.4612,-15815.858 z"
           style="fill:#ffd700;fill-opacity:1;stroke:none;stroke-width:1.00100005;stroke-miterlimit:4;stroke-dasharray:none;stroke-opacity:1" />
        <path
           id="path3247"
           d="M 3803.7486,-15220.866 C 3786.7759,-15224.746 3772.834,-15227.959 3772.7666,-15228.007 C 3772.5538,-15228.157 3776.0978,-15243.497 3779.4383,-15256.885 C 3782.3916,-15268.72 3782.7187,-15269.764 3783.4361,-15269.639 C 3784.2965,-15269.489 3845.1126,-15253.15 3845.2243,-15253.039 C 3845.2625,-15253.001 3843.844,-15246.995 3842.072,-15239.693 C 3840.3001,-15232.39 3838.2473,-15223.56 3837.5104,-15220.068 C 3836.3094,-15214.379 3836.0894,-15213.726 3835.3892,-15213.766 C 3834.9595,-15213.791 3820.7212,-15216.986 3803.7486,-15220.866 L 3803.7486,-15220.866 z"
           style="fill:#ffd700;fill-opacity:1;stroke:none;stroke-width:1.00100005;stroke-miterlimit:4;stroke-dasharray:none;stroke-opacity:1" />
        <path
           id="path3249"
           d="M 3748.9282,-14965.967 C 3748.6707,-14973.218 3748.4634,-14983.212 3748.4675,-14988.176 L 3748.4751,-14997.201 L 3768.8853,-14997.455 C 3780.1109,-14997.595 3795.0523,-14997.822 3802.0884,-14997.959 L 3814.8814,-14998.208 L 3814.8814,-14992.585 C 3814.8813,-14989.493 3815.1583,-14979.959 3815.4968,-14971.4 C 3815.8353,-14962.84 3816.055,-14955.791 3815.9851,-14955.736 C 3815.8612,-14955.637 3751.8138,-14952.752 3750.2053,-14952.773 C 3749.4127,-14952.783 3749.3869,-14953.049 3748.9282,-14965.967 z"
           style="fill:#ffd700;fill-opacity:1;stroke:none;stroke-width:1.00100005;stroke-miterlimit:4;stroke-dasharray:none;stroke-opacity:1" />
        <path
           id="path3251"
           d="M 3752.7702,-14905.81 C 3752.7693,-14905.972 3752.4304,-14909.806 3752.0172,-14914.331 C 3751.0307,-14925.134 3749.4107,-14951.115 3749.7053,-14951.409 C 3750.0352,-14951.739 3815.8081,-14954.703 3816.103,-14954.401 C 3816.2378,-14954.263 3816.5568,-14950.547 3816.8118,-14946.142 C 3817.0669,-14941.738 3817.7897,-14932.259 3818.418,-14925.077 C 3819.0464,-14917.895 3819.5098,-14911.969 3819.4479,-14911.907 C 3819.3099,-14911.769 3754.9685,-14905.517 3753.6869,-14905.517 C 3753.1837,-14905.517 3752.7712,-14905.649 3752.7702,-14905.81 L 3752.7702,-14905.81 z"
           style="fill:#ffd700;fill-opacity:1;stroke:none;stroke-width:1.00100005;stroke-miterlimit:4;stroke-dasharray:none;stroke-opacity:1" />
        <path
           id="path3253"
           d="M 3757.1264,-14866.748 C 3755.8219,-14876.214 3752.7337,-14903.928 3752.9492,-14904.236 C 3753.1341,-14904.501 3819.2221,-14910.682 3819.4482,-14910.456 C 3819.5978,-14910.306 3820.3743,-14904.52 3821.1737,-14897.597 C 3821.9731,-14890.674 3823.0989,-14881.614 3823.6756,-14877.463 C 3824.2522,-14873.313 3824.6601,-14869.853 3824.5819,-14869.775 C 3824.4383,-14869.632 3759.3474,-14860.596 3758.4562,-14860.596 C 3758.1304,-14860.596 3757.6997,-14862.588 3757.1264,-14866.748 z"
           style="fill:#ffd700;fill-opacity:1;stroke:none;stroke-width:1.00100005;stroke-miterlimit:4;stroke-dasharray:none;stroke-opacity:1" />
        <path
           id="path3255"
           d="M 3915.3687,-14437.263 C 3912.6649,-14441.353 3901.8567,-14458.632 3897.4889,-14465.846 C 3893.2765,-14472.804 3893.0526,-14473.277 3893.7318,-14473.782 C 3894.6255,-14474.446 3952.822,-14509.424 3953.0337,-14509.424 C 3953.1178,-14509.424 3953.8478,-14508.325 3954.656,-14506.982 C 3957.7921,-14501.772 3967.7784,-14485.892 3971.522,-14480.162 L 3975.4548,-14474.143 L 3946.3691,-14454.674 C 3930.3719,-14443.966 3917.1565,-14435.208 3917.0015,-14435.212 C 3916.8465,-14435.216 3916.1118,-14436.139 3915.3688,-14437.263 L 3915.3687,-14437.263 z"
           style="fill:#ffd700;fill-opacity:1;stroke:none;stroke-width:1.00100005;stroke-miterlimit:4;stroke-dasharray:none;stroke-opacity:1" />
        <path
           id="path3257"
           d="M 3941.4059,-14398.967 C 3936.0447,-14406.168 3917.5966,-14433.546 3917.7706,-14434.044 C 3917.8857,-14434.373 3974.855,-14472.627 3975.7329,-14472.965 C 3975.9635,-14473.054 3977.1752,-14471.581 3978.4254,-14469.693 C 3982.0412,-14464.232 3993.3729,-14447.878 3996.4894,-14443.623 C 3998.0553,-14441.485 3999.2047,-14439.617 3999.0437,-14439.471 C 3998.646,-14439.111 3943.3486,-14398.303 3942.7956,-14397.962 C 3942.5447,-14397.807 3941.9491,-14398.238 3941.4059,-14398.967 L 3941.4059,-14398.967 z"
           style="fill:#ffd700;fill-opacity:1;stroke:none;stroke-width:1.00100005;stroke-miterlimit:4;stroke-dasharray:none;stroke-opacity:1" />
        <path
           id="path3259"
           d="M 3961.646,-14371.644 C 3957.9908,-14376.417 3952.3173,-14383.993 3949.038,-14388.48 C 3943.3014,-14396.329 3943.1028,-14396.663 3943.7936,-14397.312 C 3946.0014,-14399.385 3999.9123,-14438.744 4000.1636,-14438.467 C 4000.3295,-14438.284 4002.199,-14435.762 4004.3182,-14432.861 C 4006.4374,-14429.961 4011.663,-14423.041 4015.9307,-14417.484 C 4022.3114,-14409.175 4023.5965,-14407.294 4023.1633,-14406.896 C 4022.723,-14406.491 3969.9624,-14364.234 3968.7063,-14363.281 C 3968.4461,-14363.083 3965.8162,-14366.198 3961.6459,-14371.644 L 3961.646,-14371.644 z"
           style="fill:#ffd700;fill-opacity:1;stroke:none;stroke-width:1.00100005;stroke-miterlimit:4;stroke-dasharray:none;stroke-opacity:1" />
        <path
           id="path3261"
           d="M 3991.3242,-14334.564 C 3987.8679,-14338.676 3981.9987,-14345.82 3978.2814,-14350.439 C 3974.5641,-14355.058 3970.9349,-14359.563 3970.2166,-14360.45 L 3968.9106,-14362.061 L 3996.2566,-14383.995 C 4011.2968,-14396.058 4023.8311,-14406.016 4024.1105,-14406.123 C 4024.4207,-14406.243 4026.9044,-14403.462 4030.4882,-14398.984 C 4033.7165,-14394.951 4039.7979,-14387.586 4044.0022,-14382.619 L 4051.6466,-14373.588 L 4027.4208,-14352.736 C 4014.0966,-14341.268 4001.938,-14330.805 4000.4016,-14329.486 L 3997.6082,-14327.087 L 3991.3242,-14334.564 z"
           style="fill:#ffd700;fill-opacity:1;stroke:none;stroke-width:1.00100005;stroke-miterlimit:4;stroke-dasharray:none;stroke-opacity:1" />
        <path
           id="path3263"
           d="M 4023.582,-14297.801 C 4015.3363,-14306.648 3998.6131,-14325.674 3998.6131,-14326.209 C 3998.6131,-14326.527 4050.7333,-14371.66 4051.9806,-14372.421 C 4052.242,-14372.581 4055.2334,-14369.514 4059.4025,-14364.811 C 4063.2437,-14360.478 4069.0672,-14354.035 4072.3436,-14350.491 C 4075.6199,-14346.948 4078.3006,-14343.935 4078.3006,-14343.795 C 4078.3006,-14343.526 4028.0215,-14294.064 4027.5761,-14293.895 C 4027.4326,-14293.84 4025.6352,-14295.598 4023.582,-14297.801 L 4023.582,-14297.801 z"
           style="fill:#ffd700;fill-opacity:1;stroke:none;stroke-width:1.00100005;stroke-miterlimit:4;stroke-dasharray:none;stroke-opacity:1" />
        <path
           id="path3265"
           d="M 4643.6341,-13971.734 C 4630.7917,-13973.561 4617.014,-13975.728 4616.8365,-13975.95 C 4616.7529,-13976.054 4628.0818,-14049.436 4628.2032,-14049.576 C 4628.2571,-14049.639 4630.9162,-14049.251 4634.1123,-14048.714 C 4638.9043,-14047.909 4658.9347,-14045.03 4666.974,-14043.99 C 4668.6527,-14043.773 4669.0248,-14043.588 4669.0248,-14042.967 C 4669.0248,-14042.11 4660.9378,-13972.815 4660.6084,-13970.849 C 4660.4275,-13969.77 4660.2372,-13969.585 4659.3391,-13969.616 C 4658.758,-13969.635 4651.6908,-13970.589 4643.6341,-13971.734 z"
           style="fill:#ffd700;fill-opacity:1;stroke:none;stroke-width:1.00100005;stroke-miterlimit:4;stroke-dasharray:none;stroke-opacity:1" />
        <path
           id="path3385"
           d="M 4691.1447,-13966.125 C 4677.6206,-13967.403 4662.2636,-13969.248 4661.8704,-13969.642 C 4661.6241,-13969.889 4670.0272,-14043.133 4670.3443,-14043.504 C 4670.4111,-14043.583 4673.0971,-14043.323 4676.3131,-14042.928 C 4679.5291,-14042.533 4689.3148,-14041.525 4698.0591,-14040.689 C 4706.8034,-14039.853 4714.1066,-14039.02 4714.2884,-14038.838 C 4714.6422,-14038.484 4710.1069,-13971.64 4709.4404,-13967.386 C 4708.9708,-13964.388 4709.2946,-13964.41 4691.1447,-13966.125 L 4691.1447,-13966.125 z"
           style="fill:#ffd700;fill-opacity:1;stroke:none;stroke-width:1.00100005;stroke-miterlimit:4;stroke-dasharray:none;stroke-opacity:1" />
        <path
           id="path3387"
           d="M 4879.8432,-13967.297 C 4879.5493,-13968.685 4875.4029,-14016.368 4873.7044,-14037.893 L 4873.5195,-14040.237 L 4879.3789,-14040.774 C 4887.1511,-14041.485 4898.613,-14042.758 4910.8614,-14044.268 C 4916.3604,-14044.946 4921.0282,-14045.333 4921.2343,-14045.126 C 4921.5754,-14044.785 4931.7145,-13974.232 4931.7202,-13972.16 C 4931.7234,-13971.001 4929.9074,-13970.697 4909.457,-13968.427 C 4879.6416,-13965.119 4880.2993,-13965.144 4879.8432,-13967.297 z"
           style="fill:#ffd700;fill-opacity:1;stroke:none;stroke-width:1.00100005;stroke-miterlimit:4;stroke-dasharray:none;stroke-opacity:1" />
        <path
           id="path3391"
           d="M 5498.1439,-14290.881 L 5472.1268,-14317.318 L 5481.7343,-14327.258 C 5514.4796,-14361.134 5538.0158,-14388.327 5563.6288,-14421.876 C 5567.5662,-14427.033 5570.7864,-14430.761 5571.1753,-14430.612 C 5572.02,-14430.287 5627.0643,-14389.625 5628.5374,-14388.236 C 5629.5954,-14387.24 5629.5846,-14387.19 5627.7457,-14384.585 C 5623.887,-14379.118 5609.519,-14360.542 5600.7071,-14349.627 C 5579.5317,-14323.397 5558.8622,-14300.147 5533.7446,-14274.304 L 5524.1609,-14264.443 L 5498.1439,-14290.881 z"
           style="fill:#adff2f;fill-opacity:1;stroke:none;stroke-width:1.00100005;stroke-miterlimit:4;stroke-dasharray:none;stroke-opacity:1" />
        <path
           id="path3393"
           d="M 5629.0109,-14450.346 C 5612.5426,-14461.642 5599.0565,-14471.079 5599.0417,-14471.317 C 5599.0269,-14471.555 5600.7171,-14474.29 5602.7976,-14477.394 C 5619.6095,-14502.478 5641.3618,-14540.232 5657.858,-14572.959 C 5663.0178,-14583.196 5667.4629,-14591.576 5667.7359,-14591.581 C 5668.0089,-14591.586 5682.3479,-14583.748 5699.6003,-14574.164 L 5730.9682,-14556.738 L 5730.1218,-14554.713 C 5727.4635,-14548.35 5707.2396,-14509.197 5701.2323,-14498.782 C 5700.0931,-14496.807 5697.7131,-14492.581 5695.9433,-14489.391 C 5690.9734,-14480.432 5679.8653,-14461.903 5672.0327,-14449.507 C 5660.6426,-14431.481 5659.5203,-14429.752 5659.2294,-14429.781 C 5659.0774,-14429.796 5645.4791,-14439.05 5629.0109,-14450.346 L 5629.0109,-14450.346 z"
           style="fill:#adff2f;fill-opacity:1;stroke:none;stroke-width:1.00100005;stroke-miterlimit:4;stroke-dasharray:none;stroke-opacity:1" />
        <path
           id="path3395"
           d="M 5699.5225,-14575.378 C 5682.2039,-14584.979 5667.9697,-14592.888 5667.891,-14592.954 C 5667.8123,-14593.019 5669.269,-14596.282 5671.1281,-14600.204 C 5699.2038,-14659.428 5724.416,-14734.162 5738.9477,-14801.236 C 5749.3029,-14849.032 5754.7852,-14887.433 5759.2363,-14943.348 L 5759.5551,-14947.353 L 5762.132,-14947.338 C 5767.4501,-14947.306 5829.1139,-14943.623 5829.4183,-14943.319 C 5830.0898,-14942.647 5827.3592,-14908.206 5824.8984,-14886.31 C 5816.7018,-14813.376 5801.1996,-14742.935 5778.0317,-14673.349 C 5772.3049,-14656.149 5771.2946,-14653.462 5770.5537,-14653.462 C 5770.2824,-14653.462 5770.1798,-14653.005 5770.3257,-14652.447 C 5770.6209,-14651.318 5762.1143,-14628.424 5754.4749,-14609.786 C 5745.8647,-14588.779 5732.0806,-14557.873 5731.337,-14557.907 C 5731.1576,-14557.915 5716.8411,-14565.777 5699.5225,-14575.378 L 5699.5225,-14575.378 z"
           style="fill:#adff2f;fill-opacity:1;stroke:none;stroke-width:1.00100005;stroke-miterlimit:4;stroke-dasharray:none;stroke-opacity:1" />
        <path
           id="path3505"
           d="M 5758.6481,-15087.02 C 5758.3851,-15087.476 5757.8261,-15092.572 5757.406,-15098.345 C 5756.9858,-15104.118 5755.4263,-15118.536 5753.9404,-15130.386 C 5731.2528,-15311.318 5660.4453,-15478.148 5545.9692,-15620.389 C 5539.6115,-15628.288 5533.9866,-15635.292 5533.4695,-15635.953 C 5532.8611,-15636.73 5541.1642,-15644.704 5556.9924,-15658.543 L 5581.4555,-15679.932 L 5584.7028,-15676.125 C 5586.4888,-15674.03 5594.5415,-15664.113 5602.5976,-15654.087 C 5713.5361,-15516.014 5787.4985,-15351.453 5816.9192,-15177.236 C 5819.9115,-15159.517 5825.7481,-15114.536 5826.9647,-15099.819 L 5827.7105,-15090.797 L 5821.8032,-15090.164 C 5817.0145,-15089.652 5762.6183,-15086.154 5759.8898,-15086.183 C 5759.4699,-15086.188 5758.9112,-15086.565 5758.6481,-15087.02 L 5758.6481,-15087.02 z"
           style="fill:#adff2f;fill-opacity:1;stroke:none;stroke-width:1.00100005;stroke-miterlimit:4;stroke-dasharray:none;stroke-opacity:1" />
        <path
           id="path3507"
           d="M 5519.795,-15651.625 C 5513.7183,-15658.741 5494.5767,-15678.78 5477.2581,-15696.158 C 5446.2659,-15727.255 5426.2978,-15745.469 5399.6279,-15766.969 C 5392.1917,-15772.963 5385.9564,-15778.313 5385.7716,-15778.857 C 5385.3984,-15779.956 5422.9851,-15828.654 5424.2063,-15828.654 C 5425.5962,-15828.654 5458.6552,-15801.685 5477.8105,-15784.925 C 5509.9304,-15756.822 5581.0704,-15684.075 5579.8017,-15680.63 C 5579.2976,-15679.262 5532.7225,-15638.613 5531.7052,-15638.653 C 5531.2312,-15638.672 5525.8717,-15644.51 5519.795,-15651.625 L 5519.795,-15651.625 z"
           style="fill:#adff2f;fill-opacity:1;stroke:none;stroke-width:1.00100005;stroke-miterlimit:4;stroke-dasharray:none;stroke-opacity:1" />
        <path
           id="path3511"
           d="M 3881.6834,-14493.161 C 3869.6506,-14514.31 3848.5621,-14556.216 3838.1754,-14579.616 C 3806.7006,-14650.526 3783.681,-14722.925 3768.6189,-14798.377 C 3764.1693,-14820.667 3757.7691,-14858.696 3758.3792,-14859.22 C 3759.0254,-14859.775 3823.8326,-14868.318 3824.459,-14867.931 C 3824.8488,-14867.69 3825.489,-14864.759 3825.8817,-14861.418 C 3827.1771,-14850.396 3834.3551,-14813.18 3839.4186,-14791.233 C 3856.0674,-14719.07 3879.177,-14653.445 3911.6695,-14586.059 C 3921.2324,-14566.227 3940.1198,-14530.855 3948.2885,-14517.48 L 3952.4983,-14510.588 L 3950.032,-14509.007 C 3940.7095,-14503.032 3893.6498,-14475.207 3892.8676,-14475.207 C 3892.3344,-14475.207 3887.3015,-14483.286 3881.6834,-14493.161 z"
           style="fill:#adff2f;fill-opacity:1;stroke:none;stroke-width:1.00100005;stroke-miterlimit:4;stroke-dasharray:none;stroke-opacity:1" />
        <path
           id="path3513"
           d="M 3748.569,-15025.425 C 3750.1472,-15081.819 3754.7873,-15129.654 3763.6804,-15181.209 C 3767.7136,-15204.59 3771.8691,-15225.194 3772.7239,-15226.049 C 3773.0689,-15226.394 3787.193,-15223.511 3804.1108,-15219.641 C 3834.3621,-15212.722 3834.8674,-15212.561 3834.6812,-15209.89 C 3834.5771,-15208.396 3832.7179,-15197.601 3830.5495,-15185.903 C 3821.2557,-15135.76 3816.2415,-15085.53 3814.809,-15028.222 L 3814.0778,-14998.971 L 3780.9447,-14998.663 L 3747.8115,-14998.356 L 3748.569,-15025.425 z"
           style="fill:#adff2f;fill-opacity:1;stroke:none;stroke-width:1.00100005;stroke-miterlimit:4;stroke-dasharray:none;stroke-opacity:1" />
        <path
           id="path3515"
           d="M 3995.6269,-15008.299 L 3995.6269,-15043.102 L 4029.8773,-15043.102 L 4064.1278,-15043.102 L 4064.1278,-15008.299 L 4064.1278,-14973.497 L 4029.8773,-14973.497 L 3995.6269,-14973.497 L 3995.6269,-15008.299 z"
           style="fill:#adff2f;fill-opacity:1;stroke:none;stroke-width:1.00100005;stroke-miterlimit:4;stroke-dasharray:none;stroke-opacity:1" />
        <path
           id="path3517"
           d="M 4612.1048,-13976.712 C 4610.5856,-13976.924 4598.2138,-13979.308 4584.6119,-13982.01 C 4401.6556,-14018.345 4231.9011,-14104.058 4090.6135,-14231.44 C 4073.5185,-14246.853 4028.7417,-14291.222 4028.7417,-14292.748 C 4028.7417,-14293.251 4040.0941,-14304.645 4053.9692,-14318.068 L 4079.1968,-14342.473 L 4092.9153,-14328.628 C 4161.7823,-14259.123 4235.6861,-14203.023 4319.4832,-14156.642 C 4408.0919,-14107.597 4510.1227,-14071.126 4610.3564,-14052.668 C 4618.8137,-14051.111 4625.9723,-14049.597 4626.2644,-14049.305 C 4626.9005,-14048.669 4616.7166,-13980.412 4615.6261,-13978.002 C 4615.16,-13976.973 4613.8006,-13976.474 4612.1048,-13976.712 L 4612.1048,-13976.712 z"
           style="fill:#44aa00;fill-opacity:1;stroke:none;stroke-width:1.00100005;stroke-miterlimit:4;stroke-dasharray:none;stroke-opacity:1" />
        <path
           id="path3523"
           d="M 4772.3126,-13961.776 C 4763.1817,-13961.915 4751.2286,-13962.225 4745.7501,-13962.465 C 4733.5547,-13963.001 4710.8697,-13964.439 4710.6159,-13964.693 C 4710.4108,-13964.898 4715.6321,-14038.764 4715.8684,-14039 C 4715.9498,-14039.081 4722.0472,-14038.782 4729.4183,-14038.334 C 4751.0813,-14037.019 4764.0592,-14036.655 4788.7188,-14036.671 C 4816.9783,-14036.688 4848.157,-14037.916 4868.4063,-14039.808 C 4870.4473,-14039.999 4872.1616,-14040.114 4872.2158,-14040.064 C 4872.27,-14040.015 4873.7121,-14023.817 4875.4204,-14004.07 C 4877.1287,-13984.322 4878.6027,-13967.529 4878.696,-13966.751 L 4878.8655,-13965.336 L 4873.5382,-13964.884 C 4854.8501,-13963.3 4821.2302,-13961.796 4800.6329,-13961.623 C 4794.1876,-13961.569 4781.4434,-13961.638 4772.3126,-13961.776 z"
           style="fill:#44aa00;fill-opacity:1;stroke:none;stroke-width:1.00100005;stroke-miterlimit:4;stroke-dasharray:none;stroke-opacity:1" />
        <path
           id="path3527"
           d="M 5300.5558,-14099.633 C 5299.5049,-14101.44 5291.2146,-14116.102 5282.1329,-14132.215 C 5269.8371,-14154.031 5265.8832,-14161.667 5266.6486,-14162.12 C 5267.2139,-14162.455 5273.8288,-14166.347 5281.3483,-14170.769 C 5330.6348,-14199.754 5377.7506,-14233.457 5420.7151,-14270.46 C 5427.9722,-14276.711 5434.6523,-14282.405 5435.5595,-14283.115 C 5437.1743,-14284.379 5437.688,-14283.869 5459.8647,-14259.016 C 5472.3252,-14245.051 5483.381,-14232.548 5484.4332,-14231.232 L 5486.3461,-14228.838 L 5482.8707,-14225.779 C 5427.0273,-14176.619 5372.5592,-14137.128 5312.0246,-14101.909 L 5302.4664,-14096.349 L 5300.5558,-14099.633 z"
           style="fill:#44aa00;fill-opacity:1;stroke:none;stroke-width:1.00100005;stroke-miterlimit:4;stroke-dasharray:none;stroke-opacity:1" />
        <path
           id="path3531"
           d="M 5338.3607,-15812.773 C 5284.6713,-15849.948 5217.9797,-15885.977 5155.9577,-15911.313 C 5100.6401,-15933.91 5042.3116,-15951.582 4982.9108,-15963.743 C 4962.8544,-15967.849 4962.6015,-15967.925 4962.8493,-15969.785 C 4963.4331,-15974.165 4973.3136,-16027.945 4973.5855,-16028.222 C 4973.9623,-16028.607 4991.4538,-16025.224 5012.2077,-16020.753 C 5133.0543,-15994.72 5251.1278,-15945.348 5357.1296,-15876.526 C 5374.7249,-15865.102 5387.9957,-15855.855 5387.9753,-15855.032 C 5387.9622,-15854.504 5352.8467,-15806.135 5351.4966,-15804.785 C 5351.1365,-15804.425 5345.2253,-15808.02 5338.3607,-15812.773 L 5338.3607,-15812.773 z"
           style="fill:#338000;fill-opacity:1;stroke:none;stroke-width:1.00100005;stroke-miterlimit:4;stroke-dasharray:none;stroke-opacity:1" />
        <path
           id="path3533"
           d="M 3853.0869,-15008.838 L 3853.0869,-15043.603 L 3887.8525,-15043.603 L 3922.6181,-15043.603 L 3922.6181,-15008.838 L 3922.6181,-14974.072 L 3887.8525,-14974.072 L 3853.0869,-14974.072 L 3853.0869,-15008.838 z"
           style="fill:#338000;fill-opacity:1;stroke:none;stroke-width:1.00100005;stroke-miterlimit:4;stroke-dasharray:none;stroke-opacity:1" />
        <path
           id="path3535"
           d="M 3924.1806,-15008.838 L 3924.1806,-15043.603 L 3958.9463,-15043.603 L 3993.7119,-15043.603 L 3993.7119,-15008.838 L 3993.7119,-14974.072 L 3958.9463,-14974.072 L 3924.1806,-14974.072 L 3924.1806,-15008.838 z"
           style="fill:#44aa00;fill-opacity:1;stroke:none;stroke-width:1.00100005;stroke-miterlimit:4;stroke-dasharray:none;stroke-opacity:1" />
        <path
           id="path3537"
           d="M 4066.4715,-15009.361 L 4066.4715,-15043.612 L 4100.722,-15043.612 L 4134.9725,-15043.612 L 4134.9725,-15009.361 L 4134.9725,-14975.111 L 4100.722,-14975.111 L 4066.4715,-14975.111 L 4066.4715,-15009.361 z"
           style="fill:#ccff99;fill-opacity:1;stroke:none;stroke-width:1.00100005;stroke-miterlimit:4;stroke-dasharray:none;stroke-opacity:1" />
        <path
           id="path3539"
           d="M 4927.9129,-14008.348 C 4925.0553,-14028.542 4922.8657,-14045.212 4923.0471,-14045.394 C 4923.2284,-14045.575 4931.8194,-14047.033 4942.1381,-14048.634 C 4952.4568,-14050.234 4970.3138,-14053.488 4981.8202,-14055.865 C 4993.3267,-14058.242 5002.8705,-14060.057 5003.0288,-14059.899 C 5003.7094,-14059.218 5022.3807,-13988.206 5021.9834,-13987.809 C 5020.6965,-13986.522 4954.3545,-13974.128 4939.27,-13972.357 L 4933.1085,-13971.633 L 4927.9129,-14008.348 z"
           style="fill:#ccff99;fill-opacity:1;stroke:none;stroke-width:1.00100005;stroke-miterlimit:4;stroke-dasharray:none;stroke-opacity:1" />
        <path
           id="path3541"
           d="M 5014.5969,-14022.387 C 5009.5869,-14041.073 5005.3991,-14057.297 5005.2907,-14058.44 C 5005.119,-14060.25 5008.0926,-14061.287 5028.2955,-14066.462 C 5082.2571,-14080.285 5132.0836,-14097.518 5181.8703,-14119.578 C 5202.0761,-14128.532 5238.221,-14146.352 5254.4271,-14155.35 C 5259.9235,-14158.402 5264.5555,-14160.746 5264.7203,-14160.558 C 5264.8852,-14160.371 5273.0969,-14145.879 5282.9686,-14128.354 C 5298.0273,-14101.62 5300.6727,-14096.259 5299.3986,-14095.058 C 5297.1063,-14092.896 5263.8065,-14075.31 5243.5149,-14065.545 C 5190.5647,-14040.063 5140.344,-14020.656 5082.9858,-14003.513 C 5070.2536,-13999.708 5026.6871,-13988.413 5024.7415,-13988.413 C 5024.172,-13988.413 5019.6069,-14003.701 5014.5969,-14022.387 L 5014.5969,-14022.387 z"
           style="fill:#ccff99;fill-opacity:1;stroke:none;stroke-width:1.00100005;stroke-miterlimit:4;stroke-dasharray:none;stroke-opacity:1" />
        <path
           id="path3543"
           d="M 3840.5631,-15254.18 C 3841.7144,-15256.043 3828.3221,-15259.306 3824.906,-15257.995 C 3823.1996,-15257.341 3822.5702,-15257.564 3823.2091,-15258.598 C 3824.4971,-15260.682 3805.22,-15265.685 3801.4607,-15264.242 C 3799.7575,-15263.589 3799.1329,-15263.815 3799.774,-15264.852 C 3800.9181,-15266.703 3787.5246,-15270.637 3785.1258,-15269.155 C 3782.6654,-15267.634 3783.3728,-15271.387 3789.7586,-15293.732 C 3825.7057,-15419.519 3891.4942,-15546.487 3974.8478,-15650.944 C 4024.5536,-15713.234 4086.6348,-15774.802 4148.9956,-15823.65 C 4159.5876,-15831.947 4168.8176,-15838.736 4169.5066,-15838.736 C 4170.1956,-15838.736 4178.8603,-15827.943 4188.7616,-15814.752 L 4206.7639,-15790.769 L 4190.9068,-15778.426 C 4132.7571,-15733.163 4071.7385,-15672.663 4025.5934,-15614.517 C 3946.0519,-15514.288 3886.5027,-15398.779 3852.4056,-15278.579 C 3848.749,-15265.689 3844.9651,-15254.625 3843.9972,-15253.994 C 3841.5584,-15252.403 3839.5328,-15252.513 3840.5631,-15254.18 L 3840.5631,-15254.18 z"
           style="fill:#fb8b00;fill-opacity:1;stroke:none;stroke-width:1.00100005;stroke-miterlimit:4;stroke-dasharray:none;stroke-opacity:1" />
        <path
           id="path3545"
           d="M 4225.3048,-15842.049 C 4215.9919,-15855.833 4208.6091,-15867.3 4208.8985,-15867.533 C 4212.8306,-15870.688 4253.6627,-15895.872 4270.3622,-15905.442 C 4360.1831,-15956.911 4449.1761,-15992.353 4547.8579,-16015.954 C 4559.8352,-16018.819 4569.8932,-16020.722 4570.2089,-16020.184 C 4570.5247,-16019.645 4571.278,-16016.213 4571.883,-16012.557 C 4572.5728,-16008.388 4573.6129,-16006.299 4574.6725,-16006.954 C 4575.7701,-16007.632 4575.9843,-16007.014 4575.2838,-16005.188 C 4573.7762,-16001.259 4575.7716,-15991.639 4577.8304,-15992.912 C 4578.8902,-15993.567 4579.0986,-15992.924 4578.4088,-15991.126 C 4577.1363,-15987.81 4578.9109,-15976.759 4580.3438,-15979.078 C 4580.8839,-15979.952 4581.4475,-15976.285 4581.5964,-15970.929 L 4581.8669,-15961.191 L 4565.9584,-15957.682 C 4526.9572,-15949.079 4470.7643,-15931.385 4427.2923,-15914.018 C 4371.4739,-15891.718 4310.5411,-15860.286 4261.8792,-15828.691 C 4252.9167,-15822.871 4244.8308,-15817.858 4243.9105,-15817.549 C 4242.9902,-15817.241 4234.6176,-15828.266 4225.3048,-15842.049 z"
           style="fill:#fb8b00;fill-opacity:1;stroke:none;stroke-width:1.00100005;stroke-miterlimit:4;stroke-dasharray:none;stroke-opacity:1" />
        <path
           id="path3547"
           d="M 4624.642,-15972.546 C 4624.6218,-15975.007 4624.378,-15975.094 4623.0574,-15973.111 C 4621.9595,-15971.462 4621.7723,-15972.852 4622.4262,-15977.798 C 4623.1558,-15983.316 4622.9653,-15984.325 4621.5408,-15982.486 C 4620.0745,-15980.592 4619.9041,-15980.961 4620.6541,-15984.403 C 4621.9113,-15990.173 4618.3584,-16011.442 4616.5877,-16008.746 C 4615.8014,-16007.549 4615.6312,-16009.613 4616.1762,-16013.736 C 4616.8881,-16019.12 4616.6967,-16020.218 4615.3592,-16018.423 C 4614.0195,-16016.625 4613.8522,-16017.535 4614.6413,-16022.329 C 4615.2071,-16025.767 4616.1121,-16029.041 4616.6524,-16029.606 C 4618.1947,-16031.217 4675.4945,-16038.492 4708.2597,-16041.237 C 4754.6217,-16045.121 4871.3135,-16044.171 4875.6096,-16039.875 C 4876.0945,-16039.39 4876.7581,-16035.947 4877.0844,-16032.224 C 4877.6175,-16026.139 4877.5306,-16025.929 4876.2251,-16030.142 C 4875.1884,-16033.488 4874.9329,-16030.134 4875.3323,-16018.423 C 4875.6596,-16008.825 4875.39,-16003.962 4874.6825,-16006.704 C 4872.9489,-16013.424 4872.8071,-15994.877 4874.5242,-15986.001 C 4875.2307,-15982.349 4875.2447,-15979.361 4874.5551,-15979.361 C 4873.8656,-15979.361 4873.0179,-15981.646 4872.6713,-15984.439 L 4872.0411,-15989.517 L 4871.791,-15984.265 C 4871.5477,-15979.155 4871.3952,-15979.04 4866.1514,-15980.024 C 4845.6652,-15983.867 4745.5987,-15983.53 4701.2285,-15979.468 C 4682.9193,-15977.791 4639.2284,-15972.37 4629.8465,-15970.61 C 4625.4929,-15969.793 4624.6621,-15970.102 4624.642,-15972.546 L 4624.642,-15972.546 z"
           style="fill:#6699cc;fill-opacity:1;stroke:none;stroke-width:1.00100005;stroke-miterlimit:4;stroke-dasharray:none;stroke-opacity:1" />
      </g>
      <path
         sodipodi:type="arc"
         style="fill:none;fill-opacity:1;fill-rule:nonzero;stroke:#000000;stroke-width:1.81743371;stroke-linecap:butt;stroke-linejoin:miter;marker:none;marker-start:none;marker-mid:none;marker-end:none;stroke-miterlimit:4;stroke-dasharray:none;stroke-dashoffset:0;stroke-opacity:1;visibility:visible;display:inline;overflow:visible;enable-background:accumulate"
         id="path3158"
         sodipodi:cx="1167.83"
         sodipodi:cy="1238"
         sodipodi:rx="947.29553"
         sodipodi:ry="947.29553"
         d="M 2115.1255,1238 A 947.29553,947.29553 0 1 1 220.53442,1238 A 947.29553,947.29553 0 1 1 2115.1255,1238 z"
         transform="matrix(1.1004528,0,0,1.1004528,-68.8204,-128.515)" />
      <path
         sodipodi:type="arc"
         style="fill:none;fill-opacity:1;fill-rule:nonzero;stroke:#000000;stroke-width:2.00200009;stroke-linecap:butt;stroke-linejoin:miter;marker:none;marker-start:none;marker-mid:none;marker-end:none;stroke-miterlimit:4;stroke-dasharray:none;stroke-dashoffset:0;stroke-opacity:1;visibility:visible;display:inline;overflow:visible;enable-background:accumulate"
         id="path3160"
         sodipodi:cx="1107.6842"
         sodipodi:cy="1458.5344"
         sodipodi:rx="972.66028"
         sodipodi:ry="972.66028"
         d="M 2080.3445,1458.5344 A 972.66028,972.66028 0 1 1 135.02393,1458.5344 A 972.66028,972.66028 0 1 1 2080.3445,1458.5344 z"
         transform="translate(106.865,-231.473)" />
      <path
         style="fill:none;fill-rule:evenodd;stroke:#000000;stroke-width:2;stroke-linecap:butt;stroke-linejoin:miter;stroke-miterlimit:4;stroke-dasharray:none;stroke-opacity:1"
         d="M 1777.6843,433.836 L 1815.7836,381.561"
         id="path3162" />
      <path
         style="fill:none;fill-rule:evenodd;stroke:#000000;stroke-width:2;stroke-linecap:butt;stroke-linejoin:miter;stroke-miterlimit:4;stroke-dasharray:none;stroke-opacity:1"
         d="M 1850.3388,406.812 L 1810.4674,458.202"
         id="path3164" />
      <path
         style="fill:none;fill-rule:evenodd;stroke:#000000;stroke-width:2;stroke-linecap:butt;stroke-linejoin:miter;stroke-miterlimit:4;stroke-dasharray:none;stroke-opacity:1"
         d="M 2007.6092,556.552 L 1957.9915,599.967"
         id="path3166" />
      <path
         style="fill:none;fill-rule:evenodd;stroke:#000000;stroke-width:2;stroke-linecap:butt;stroke-linejoin:miter;stroke-miterlimit:4;stroke-dasharray:none;stroke-opacity:1"
         d="M 2183.9293,1151.521 L 2254.8117,1147.091"
         id="path3168" />
      <path
         style="fill:none;fill-rule:evenodd;stroke:#000000;stroke-width:2;stroke-linecap:butt;stroke-linejoin:miter;stroke-miterlimit:4;stroke-dasharray:none;stroke-opacity:1"
         d="M 2187.0304,1198.924 L 2257.9128,1197.152"
         id="path3170" />
      <path
         style="fill:none;fill-rule:evenodd;stroke:#000000;stroke-width:2;stroke-linecap:butt;stroke-linejoin:miter;stroke-miterlimit:4;stroke-dasharray:none;stroke-opacity:1"
         d="M 2187.0304,1246.326 L 2258.3558,1247.212"
         id="path3172" />
      <path
         style="fill:none;fill-rule:evenodd;stroke:#000000;stroke-width:2;stroke-linecap:butt;stroke-linejoin:miter;stroke-miterlimit:4;stroke-dasharray:none;stroke-opacity:1"
         d="M 2185.7013,1288.856 L 2256.5838,1292.843"
         id="path3174" />
      <path
         style="fill:none;fill-rule:evenodd;stroke:#000000;stroke-width:2;stroke-linecap:butt;stroke-linejoin:miter;stroke-miterlimit:4;stroke-dasharray:none;stroke-opacity:1"
         d="M 2093.5542,1644.154 L 2158.2344,1680.038"
         id="path3176" />
      <path
         style="fill:none;fill-rule:evenodd;stroke:#000000;stroke-width:2;stroke-linecap:butt;stroke-linejoin:miter;stroke-miterlimit:4;stroke-dasharray:none;stroke-opacity:1"
         d="M 2024.0008,1765.54 L 2086.0229,1808.07"
         id="path3178" />
      <path
         style="fill:none;fill-rule:evenodd;stroke:#000000;stroke-width:2;stroke-linecap:butt;stroke-linejoin:miter;stroke-miterlimit:4;stroke-dasharray:none;stroke-opacity:1"
         d="M 1996.9768,1804.969 L 2056.7839,1849.27"
         id="path3180" />
      <path
         style="fill:none;fill-rule:evenodd;stroke:#000000;stroke-width:2;stroke-linecap:butt;stroke-linejoin:miter;stroke-miterlimit:4;stroke-dasharray:none;stroke-opacity:1"
         d="M 1897.2984,1919.267 L 1951.3463,1973.757"
         id="path3182" />
      <path
         style="fill:none;fill-rule:evenodd;stroke:#000000;stroke-width:2;stroke-linecap:butt;stroke-linejoin:miter;stroke-miterlimit:4;stroke-dasharray:none;stroke-opacity:1"
         d="M 1863.6292,1951.607 L 1913.69,2007.87"
         id="path3184" />
      <path
         style="fill:none;fill-rule:evenodd;stroke:#000000;stroke-width:2;stroke-linecap:butt;stroke-linejoin:miter;stroke-miterlimit:4;stroke-dasharray:none;stroke-opacity:1"
         d="M 1691.2963,2075.208 L 1728.5096,2141.217"
         id="path3186" />
      <path
         style="fill:none;fill-rule:evenodd;stroke:#000000;stroke-width:2;stroke-linecap:butt;stroke-linejoin:miter;stroke-miterlimit:4;stroke-dasharray:none;stroke-opacity:1"
         d="M 1429.9173,2175.329 L 1449.853,2249.756"
         id="path3188" />
      <path
         style="fill:none;fill-rule:evenodd;stroke:#000000;stroke-width:2;stroke-linecap:butt;stroke-linejoin:miter;stroke-miterlimit:4;stroke-dasharray:none;stroke-opacity:1"
         d="M 1348.4025,2190.392 L 1359.0348,2266.148"
         id="path3190" />
      <path
         style="fill:none;fill-rule:evenodd;stroke:#000000;stroke-width:2;stroke-linecap:butt;stroke-linejoin:miter;stroke-miterlimit:4;stroke-dasharray:none;stroke-opacity:1"
         d="M 1299.2278,2195.708 L 1305.873,2271.907"
         id="path3192" />
      <path
         style="fill:none;fill-rule:evenodd;stroke:#000000;stroke-width:2;stroke-linecap:butt;stroke-linejoin:miter;stroke-miterlimit:4;stroke-dasharray:none;stroke-opacity:1"
         d="M 1096.3268,2192.164 L 1087.4665,2267.477"
         id="path3196" />
      <path
         style="fill:none;fill-rule:evenodd;stroke:#000000;stroke-width:2;stroke-linecap:butt;stroke-linejoin:miter;stroke-miterlimit:4;stroke-dasharray:none;stroke-opacity:1"
         d="M 1054.2403,2186.405 L 1042.7219,2261.274"
         id="path3198" />
      <path
         style="fill:none;fill-rule:evenodd;stroke:#000000;stroke-width:2;stroke-linecap:butt;stroke-linejoin:miter;stroke-miterlimit:4;stroke-dasharray:none;stroke-opacity:1"
         d="M 505.7874,1893.129 L 453.9546,1944.075"
         id="path3202" />
      <path
         style="fill:none;fill-rule:evenodd;stroke:#000000;stroke-width:2;stroke-linecap:butt;stroke-linejoin:miter;stroke-miterlimit:4;stroke-dasharray:none;stroke-opacity:1"
         d="M 424.2726,1910.406 L 478.3204,1863.89"
         id="path3204" />
      <path
         style="fill:none;fill-rule:evenodd;stroke:#000000;stroke-width:2;stroke-linecap:butt;stroke-linejoin:miter;stroke-miterlimit:4;stroke-dasharray:none;stroke-opacity:1"
         d="M 450.8535,1829.778 L 395.0336,1874.522"
         id="path3206" />
      <path
         style="fill:none;fill-rule:evenodd;stroke:#000000;stroke-width:2;stroke-linecap:butt;stroke-linejoin:miter;stroke-miterlimit:4;stroke-dasharray:none;stroke-opacity:1"
         d="M 368.8957,1839.967 L 426.4876,1797.437"
         id="path3208" />
      <path
         style="fill:none;fill-rule:evenodd;stroke:#000000;stroke-width:2;stroke-linecap:butt;stroke-linejoin:miter;stroke-miterlimit:4;stroke-dasharray:none;stroke-opacity:1"
         d="M 402.1218,1763.325 L 343.2008,1802.754"
         id="path3210" />
      <path
         style="fill:none;fill-rule:evenodd;stroke:#000000;stroke-width:2;stroke-linecap:butt;stroke-linejoin:miter;stroke-miterlimit:4;stroke-dasharray:none;stroke-opacity:1"
         d="M 318.8349,1763.325 L 379.971,1726.555"
         id="path3212" />
      <path
         style="fill:none;fill-rule:evenodd;stroke:#000000;stroke-width:2;stroke-linecap:butt;stroke-linejoin:miter;stroke-miterlimit:4;stroke-dasharray:none;stroke-opacity:1"
         d="M 184.6013,1377.016 L 251.9396,1367.713"
         id="path3214" />
      <path
         style="fill:none;fill-rule:evenodd;stroke:#000000;stroke-width:2;stroke-linecap:butt;stroke-linejoin:miter;stroke-miterlimit:4;stroke-dasharray:none;stroke-opacity:1"
         d="M 246.6234,1325.626 L 177.9561,1332.271"
         id="path3216" />
      <path
         style="fill:none;fill-rule:evenodd;stroke:#000000;stroke-width:2;stroke-linecap:butt;stroke-linejoin:miter;stroke-miterlimit:4;stroke-dasharray:none;stroke-opacity:1"
         d="M 174.855,1284.869 L 243.5223,1281.768"
         id="path3218" />
      <path
         style="fill:none;fill-rule:evenodd;stroke:#000000;stroke-width:2;stroke-linecap:butt;stroke-linejoin:miter;stroke-miterlimit:4;stroke-dasharray:none;stroke-opacity:1"
         d="M 174.855,1239.238 L 241.7503,1238.352"
         id="path3220" />
      <path
         style="fill:none;fill-rule:evenodd;stroke:#000000;stroke-width:2;stroke-linecap:butt;stroke-linejoin:miter;stroke-miterlimit:4;stroke-dasharray:none;stroke-opacity:1"
         d="M 198.3348,1009.313 L 262.572,1023.933"
         id="path3222" />
      <path
         style="fill:none;fill-rule:evenodd;stroke:#000000;stroke-width:2;stroke-linecap:butt;stroke-linejoin:miter;stroke-miterlimit:4;stroke-dasharray:none;stroke-opacity:1"
         d="M 208.5241,966.341 L 272.7613,983.618"
         id="path3224" />
      <path
         style="fill:none;fill-rule:evenodd;stroke:#000000;stroke-width:2;stroke-linecap:butt;stroke-linejoin:miter;stroke-miterlimit:4;stroke-dasharray:none;stroke-opacity:1"
         d="M 596.1625,395.737 L 634.2618,446.241"
         id="path3226" />
      <path
         style="fill:none;fill-rule:evenodd;stroke:#000000;stroke-width:2;stroke-linecap:butt;stroke-linejoin:miter;stroke-miterlimit:4;stroke-dasharray:none;stroke-opacity:1"
         d="M 633.8188,369.599 L 669.26,421.432"
         id="path3228" />
      <path
         style="fill:none;fill-rule:evenodd;stroke:#000000;stroke-width:2;stroke-linecap:butt;stroke-linejoin:miter;stroke-miterlimit:4;stroke-dasharray:none;stroke-opacity:1"
         d="M 997.0913,214.987 L 1010.3818,275.68"
         id="path3230" />
      <path
         style="fill:none;fill-rule:evenodd;stroke:#000000;stroke-width:2;stroke-linecap:butt;stroke-linejoin:miter;stroke-miterlimit:4;stroke-dasharray:none;stroke-opacity:1"
         d="M 1040.0638,206.57 L 1050.6962,267.706"
         id="path3232" />
      <path
         style="fill:none;fill-rule:evenodd;stroke:#000000;stroke-width:2;stroke-linecap:butt;stroke-linejoin:miter;stroke-miterlimit:4;stroke-dasharray:none;stroke-opacity:1"
         d="M 1303.2149,195.494 L 1298.7847,257.959"
         id="path3234" />
      <path
         style="fill:none;fill-rule:evenodd;stroke:#000000;stroke-width:2;stroke-linecap:butt;stroke-linejoin:miter;stroke-miterlimit:4;stroke-dasharray:none;stroke-opacity:1"
         d="M 1351.5036,200.367 L 1343.0863,262.39"
         id="path3236" />
      <path
         style="fill:none;fill-rule:evenodd;stroke:#000000;stroke-width:2;stroke-linecap:butt;stroke-linejoin:miter;stroke-miterlimit:4;stroke-dasharray:none;stroke-opacity:1"
         d="M 1399.3492,207.899 L 1388.2738,269.035"
         id="path3238" />
      <rect
         style="fill:none;fill-opacity:1;stroke:#000000;stroke-width:2;stroke-miterlimit:4;stroke-dasharray:none;stroke-opacity:1"
         id="rect3264"
         width="70.882446"
         height="70.882446"
         x="278.96359"
         y="1192.7219" />
      <rect
         style="fill:none;fill-opacity:1;stroke:#000000;stroke-width:2;stroke-miterlimit:4;stroke-dasharray:none;stroke-opacity:1"
         id="rect3266"
         width="70.882446"
         height="70.882446"
         x="349.84592"
         y="1192.7219" />
      <rect
         style="fill:none;fill-opacity:1;stroke:#000000;stroke-width:2;stroke-miterlimit:4;stroke-dasharray:none;stroke-opacity:1"
         id="rect3268"
         width="70.882446"
         height="70.882446"
         x="420.72849"
         y="1192.7219" />
      <rect
         style="fill:none;fill-opacity:1;stroke:#000000;stroke-width:2;stroke-miterlimit:4;stroke-dasharray:none;stroke-opacity:1"
         id="rect3270"
         width="70.882446"
         height="70.882446"
         x="491.61081"
         y="1192.7219" />
      <rect
         style="fill:none;fill-opacity:1;stroke:#000000;stroke-width:2;stroke-miterlimit:4;stroke-dasharray:none;stroke-opacity:1"
         id="rect3272"
         width="70.882446"
         height="70.882446"
         x="695.84076"
         y="1000.8958" />
      <path
         style="fill:none;fill-rule:evenodd;stroke:#000000;stroke-width:2;stroke-linecap:butt;stroke-linejoin:miter;stroke-miterlimit:4;stroke-dasharray:none;stroke-opacity:1"
         d="M 1141.7163,2197.345 L 1136.2475,2273.517"
         id="path3271" />
    </g>
    <text
       id="text2483"
       y="633.2226"
       x="803.77478"
       style="font-size:38px;font-style:normal;font-variant:normal;font-weight:normal;font-stretch:normal;fill:#000000;fill-opacity:1;stroke:none;stroke-width:1px;stroke-linecap:butt;stroke-linejoin:miter;stroke-opacity:1;font-family:Sans;-inkscape-font-specification:Sans"
       xml:space="preserve"><tspan
         y="633.2226"
         x="803.77478"
         id="tspan2485"
         sodipodi:role="line">Geni del tRNA (22 in totale)</tspan></text>
    <text
       id="text2487"
       y="733.4726"
       x="687.21222"
       style="font-size:38px;font-style:normal;font-variant:normal;font-weight:normal;font-stretch:normal;fill:#000000;fill-opacity:1;stroke:none;stroke-width:1px;stroke-linecap:butt;stroke-linejoin:miter;stroke-opacity:1;font-family:Sans;-inkscape-font-specification:Sans"
       xml:space="preserve"><tspan
         y="733.4726"
         x="687.21222"
         id="tspan2489"
         sodipodi:role="line">Regioni che codificano proteine (13 in totale)</tspan></text>
    <text
       id="text2491"
       y="1048.5293"
       x="1794.5869"
       style="font-size:38px;font-style:normal;font-variant:normal;font-weight:normal;font-stretch:normal;text-align:center;text-anchor:middle;fill:#000000;fill-opacity:1;stroke:none;stroke-width:1px;stroke-linecap:butt;stroke-linejoin:miter;stroke-opacity:1;font-family:Sans;-inkscape-font-specification:Sans"
       xml:space="preserve"><tspan
         y="1048.5293"
         x="1794.5869"
         id="tspan2493"
         sodipodi:role="line">subunit della</tspan><tspan
         id="tspan2495"
         y="1096.0293"
         x="1794.5869"
         sodipodi:role="line">NADH deidrogenasi</tspan></text>
    <text
       id="text2497"
       y="1268.6301"
       x="1617.0685"
       style="font-size:38px;font-style:normal;font-variant:normal;font-weight:normal;font-stretch:normal;text-align:center;text-anchor:middle;fill:#000000;fill-opacity:1;stroke:none;stroke-width:1px;stroke-linecap:butt;stroke-linejoin:miter;stroke-opacity:1;font-family:Sans;-inkscape-font-specification:Sans"
       xml:space="preserve"><tspan
         y="1268.6301"
         x="1617.0685"
         id="tspan2499"
         sodipodi:role="line">subunit della citocromo ossidasi</tspan></text>
    <text
       id="text2501"
       y="1392.3739"
       x="1312.1287"
       style="font-size:38px;font-style:normal;font-variant:normal;font-weight:normal;font-stretch:normal;text-align:center;text-anchor:middle;fill:#000000;fill-opacity:1;stroke:none;stroke-width:1px;stroke-linecap:butt;stroke-linejoin:miter;stroke-opacity:1;font-family:Sans;-inkscape-font-specification:Sans"
       xml:space="preserve"><tspan
         y="1392.3739"
         x="1312.1287"
         id="tspan2503"
         sodipodi:role="line">subunit dell'ATP sintasi</tspan></text>
    <text
       id="text2505"
       y="1419.7737"
       x="742.51605"
       style="font-size:38px;font-style:normal;font-variant:normal;font-weight:normal;font-stretch:normal;text-align:center;text-anchor:middle;fill:#000000;fill-opacity:1;stroke:none;stroke-width:1px;stroke-linecap:butt;stroke-linejoin:miter;stroke-opacity:1;font-family:Sans;-inkscape-font-specification:Sans"
       xml:space="preserve"><tspan
         y="1419.7737"
         x="742.51605"
         id="tspan2507"
         sodipodi:role="line">subunit della citocromo ossidasi</tspan></text>
    <text
       id="text2509"
       y="809.58258"
       x="203.18652"
       style="font-size:38px;font-style:normal;font-variant:normal;font-weight:normal;font-stretch:normal;text-align:center;text-anchor:middle;fill:#000000;fill-opacity:1;stroke:none;stroke-width:1px;stroke-linecap:butt;stroke-linejoin:miter;stroke-opacity:1;font-family:Sans;-inkscape-font-specification:Sans"
       xml:space="preserve"><tspan
         y="809.58258"
         x="203.18652"
         id="tspan2511"
         sodipodi:role="line">subunit della</tspan><tspan
         id="tspan2513"
         y="857.08258"
         x="203.18652"
         sodipodi:role="line">NADH deidrogenasi</tspan></text>
    <text
       id="text2515"
       y="318.45554"
       x="459.18118"
       style="font-size:38px;font-style:normal;font-variant:normal;font-weight:normal;font-stretch:normal;text-align:center;text-anchor:middle;fill:#000000;fill-opacity:1;stroke:none;stroke-width:1px;stroke-linecap:butt;stroke-linejoin:miter;stroke-opacity:1;font-family:Sans;-inkscape-font-specification:Sans"
       xml:space="preserve"><tspan
         y="318.45554"
         x="459.18118"
         id="tspan2517"
         sodipodi:role="line">16S rRNA</tspan></text>
    <text
       id="text2519"
       y="124.00118"
       x="733.18506"
       style="font-size:38px;font-style:normal;font-variant:normal;font-weight:normal;font-stretch:normal;text-align:center;text-anchor:middle;fill:#000000;fill-opacity:1;stroke:none;stroke-width:1px;stroke-linecap:butt;stroke-linejoin:miter;stroke-opacity:1;font-family:Sans;-inkscape-font-specification:Sans"
       xml:space="preserve"><tspan
         y="124.00118"
         x="733.18506"
         id="tspan2521"
         sodipodi:role="line">12S rRNA</tspan></text>
    <text
       id="text2523"
       y="48.871094"
       x="1024.8666"
       style="font-size:38px;font-style:normal;font-variant:normal;font-weight:normal;font-stretch:normal;text-align:center;text-anchor:middle;fill:#000000;fill-opacity:1;stroke:none;stroke-width:1px;stroke-linecap:butt;stroke-linejoin:miter;stroke-opacity:1;font-family:Sans;-inkscape-font-specification:Sans"
       xml:space="preserve"><tspan
         y="48.871094"
         x="1024.8666"
         id="tspan2525"
         sodipodi:role="line">origine della replicazione</tspan></text>
    <text
       id="text2527"
       y="222.63895"
       x="1661.1747"
       style="font-size:38px;font-style:normal;font-variant:normal;font-weight:normal;font-stretch:normal;text-align:center;text-anchor:middle;fill:#000000;fill-opacity:1;stroke:none;stroke-width:1px;stroke-linecap:butt;stroke-linejoin:miter;stroke-opacity:1;font-family:Sans;-inkscape-font-specification:Sans"
       xml:space="preserve"><tspan
         y="222.63895"
         x="1661.1747"
         id="tspan2529"
         sodipodi:role="line">subunit della</tspan><tspan
         id="tspan2531"
         y="270.13895"
         x="1661.1747"
         sodipodi:role="line">NADH deidrogenasi</tspan></text>
    <text
       id="text2533"
       y="126.00118"
       x="1369.5811"
       style="font-size:38px;font-style:normal;font-variant:normal;font-weight:normal;font-stretch:normal;text-align:center;text-anchor:middle;fill:#000000;fill-opacity:1;stroke:none;stroke-width:1px;stroke-linecap:butt;stroke-linejoin:miter;stroke-opacity:1;font-family:Sans;-inkscape-font-specification:Sans"
       xml:space="preserve"><tspan
         y="126.00118"
         x="1369.5811"
         id="tspan2535"
         sodipodi:role="line">citocromo <tspan
   id="tspan2537"
   style="font-size:38px;font-style:italic;-inkscape-font-specification:Sans Italic">b</tspan></tspan></text>
  </g>
</svg>
